<?xml version="1.0" encoding="UTF-8"?>
<svg id="Layer_2" data-name="Layer 2" xmlns="http://www.w3.org/2000/svg" viewBox="0 0 390.01 539.47">
  <defs>
    <style>
      .cls-1 {
        fill: #231f20;
        stroke: #231f20;
        stroke-miterlimit: 10;
      }
    </style>
  </defs>
  <g id="Layer_1-2" data-name="Layer 1">
    <path class="cls-1" d="M78.88,211.2l121.39-10.7c16.21-1.43,31.99-6.01,46.45-13.48l130.17-67.24-23.56,121.67c-5.48,28.3-3.05,57.57,7.03,84.58l28.95,77.59-115.25,15.48c-20.45,2.75-40.02,10.03-57.3,21.31l-149.98,97.94,35.68-141.01c4.94-19.51,5.46-39.87,1.54-59.61l-25.14-126.53Z"/>
    <path class="cls-1" d="M5.74,38.33l49.68-4.38c6.64-.58,13.09-2.46,19.01-5.52L127.71,.92l-9.64,49.79c-2.24,11.58-1.25,23.56,2.88,34.61l11.85,31.75-47.17,6.33c-8.37,1.12-16.38,4.1-23.45,8.72L.8,172.21l14.6-57.71c2.02-7.98,2.24-16.32,.63-24.39L5.74,38.33Z"/>
  </g>
</svg>